# xmcd
#
# Track frame offsets: 
#        150
#        31272
#        54877
#        83091
#        109055
#        132966
#        164151
#        184317
#        211443
#        236505
#
# Disc length: 3447 seconds
#
# Revision: 1
# Processed by: cddbd v1.5.2PL0 Copyright (c) Steve Scherf et al.
# Submitted via: ExactAudioCopy v1.3
#
DISCID=850d750a
DTITLE=Bernard Allison Group - In the Mix
DYEAR=2015
DGENRE=Blues
TTITLE0=Five Long Years
TTITLE1=Call Me Momma
TTITLE2=Move from the Hood
TTITLE3=Tell Me Who
TTITLE4=Something's Wrong
TTITLE5=Lust for You
TTITLE6=I Had It All the Time
TTITLE7=I'd Rather Be Blind
TTITLE8=Set Me Free
TTITLE9=Moving On Up
EXTD=
EXTT0=
EXTT1=
EXTT2=
EXTT3=
EXTT4=
EXTT5=
EXTT6=
EXTT7=
EXTT8=
EXTT9=
PLAYORDER=
